<?xml version="1.0" encoding="iso-8859-1"?>
<!-- Generator: Adobe Illustrator 19.0.0, SVG Export Plug-In . SVG Version: 6.00 Build 0)  -->
<svg version="1.1" id="Capa_1" xmlns="http://www.w3.org/2000/svg" xmlns:xlink="http://www.w3.org/1999/xlink" x="0px" y="0px"
	 viewBox="0 0 491.415 491.415" style="enable-background:new 0 0 491.415 491.415;" xml:space="preserve">
<g>
	<g>
	<path d="M147.315,315.859c-1.3,1.2-0.8,5.6,0.3,8c2.2,4.7,6.7,6,11.3,5.8c15.1-0.5,27.8-6.9,38.4-15.7
			c15.8-13.3,32.1-26.1,47.2-40.2c0.1,0.1,0.3,0.2,0.4,0.3c2.6,3.2,5.2,6.4,7.9,9.5c17.2,19.6,35.2,38.3,56.4,53.7
			c6,4.4,13.6,5.5,19.6-1.4c5.5-6.2,6.1-14.2,1.5-20.2c-8.4-10.8-16.7-21.8-26.5-31.3c-12-11.6-24.7-22.5-37.3-33.5
			c1.2-1.4,2.4-2.7,3.5-4.1c3.2-2.6,6.4-5.2,9.5-7.9c19.6-17.2,38.3-35.2,53.7-56.4c4.4-6,5.5-13.6-1.4-19.6
			c-6.2-5.5-14.2-6.1-20.2-1.5c-10.8,8.4-21.8,16.7-31.3,26.5c-12,12.4-23.2,25.4-34.5,38.4c-19.8-28.2-47.4-49.4-70.1-75
			c-1.2-1.3-5.6-0.8-8,0.3c-4.7,2.2-6,6.7-5.8,11.3c0.5,15.1,6.9,27.8,15.7,38.4c13.4,15.9,26.3,32.3,40.5,47.5
			C191.915,268.259,171.615,294.259,147.315,315.859z"/>
	</g>
</g>
<g>
</g>
<g>
</g>
<g>
</g>
<g>
</g>
<g>
</g>
<g>
</g>
<g>
</g>
<g>
</g>
<g>
</g>
<g>
</g>
<g>
</g>
<g>
</g>
<g>
</g>
<g>
</g>
<g>
</g>
</svg>
