<?xml version="1.0" encoding="iso-8859-1"?>
<!-- Generator: Adobe Illustrator 19.0.0, SVG Export Plug-In . SVG Version: 6.00 Build 0)  -->
<svg version="1.1" id="Capa_1" xmlns="http://www.w3.org/2000/svg" xmlns:xlink="http://www.w3.org/1999/xlink" x="0px" y="0px"
	 viewBox="0 0 493.302 493.302" style="enable-background:new 0 0 493.302 493.302;" xml:space="preserve"  fill="#0C1B45">
<g>
	<g>
		<path d="M295.736,490.502c22.1,0.8,44.4,1.6,66.6,2.4l16.7,0.4c3.4-0.1,6.7-0.1,10.1-0.4c3.3-0.5,6.7-0.8,10-1.6
			c13.2-2.8,25.8-8.7,36.5-17c17.1-13.4,29.2-33,33.4-54.3c0.5-2.8,0.9-5.8,1.2-8.7c0.2-1.6,0.2-2.6,0.3-3.7l0.1-3.3l0.1-1.7v-1.6
			v-0.8l-0.1-3.3l-0.1-6.7l-0.5-26.8l-2.2-107.1c2.9-32,4.6-64.2,5.6-96.5c0.5-16.2,0.9-32.3,1.1-48.5l0.1-12.2v-3.1l-0.1-3.8
			c-0.2-2.5-0.1-5.1-0.6-7.6c-1-10.2-4.2-20.1-8.5-29.4c-8.6-18.6-23.7-33.9-41.7-43.6l-6.9-3.3c-2.3-1-4.8-1.8-7.2-2.7
			c-2.4-0.9-4.9-1.5-7.4-2.1c-2.4-0.6-4.9-1.3-7.9-1.6l-4.2-0.6c-1.4-0.2-2.9-0.4-3.8-0.4l-6.1-0.3l-1.8-0.1h-0.8h-1.5h-3h-6.1
			c-32.5,0.1-65,0.1-97.3-0.5c-5.8-0.1-14.8,3.4-17.7,5.8c-5.6,4.9,1.7,9,12.7,12.1c18.1,5.2,38.1,8.9,59.2,11.4
			c10.5,1.3,21.3,2.3,32.3,3c5.5,0.4,11,0.7,16.5,0.9l4.2,0.2h1h0.5h0.1l0,0c-0.3,0,0.7,0-0.6,0h0.1h0.3l2.1,0.2
			c2.7,0.2,5.8,0.4,7.5,0.9c1.2,0.3,2.4,0.4,3.6,0.7l3.9,1.2c2.6,0.7,5.1,1.9,7.6,2.9c4.9,2.4,9.5,5.3,13.6,8.9
			c4,3.6,7.8,7.5,10.7,12c1.7,2.1,2.8,4.6,4.1,6.9c1,2.5,2.3,4.8,3,7.3c1.9,5,2.6,10.2,3.2,15.4l0.1,3.9c0,1.3,0.1,2.6,0,4.4
			l-0.3,10.1l-0.9,40.4c-1.1,53.8-1.3,107.8,0.3,161.9c-0.4,13.4-0.7,26.7-1.1,40.1l-0.6,31.8l-0.2,15.9v1.9v0.1l-0.1,1l-0.2,4
			c-0.1,3.1-0.6,4-0.8,5.7c-1.3,7.1-4.4,14.9-8.8,21.2c-4.4,6.4-10.2,12-16.7,16.1c-6.6,4.2-14,7-21.7,8.3c-1.9,0.4-3.9,0.5-5.8,0.7
			c-1.1,0.1-1.7,0.2-3.2,0.2l-4,0.1l-15.9,0.3c-21.2,0.5-42.3,1.2-63.4,2.3c-24,1.2-44,5.8-42.2,14.8
			C254.136,483.402,271.136,489.502,295.736,490.502z"/>
		<path d="M341.136,268.802c2.2,0.1,5.7-3.4,6.8-5.8c2.2-4.9-0.6-9-4.8-12.1c-13.8-10.3-30.6-14.8-47.7-16
			c-41.1-2.9-82.2-7.3-123.6-4c-5.1-0.4-10.2-0.8-15.3-1.1c-25.5-1.3-51-1.9-76.4-0.1c16-14.7,31.2-30.3,44.1-48
			c4.5-6.1,5.6-13.8-1.2-19.8c-6.2-5.5-14.3-6-20.4-1.3c-11,8.6-22.2,17.1-31.9,27.1c-15.5,16.1-29.9,33.3-44.8,50l-2.4,1.4h-0.1
			c-4.6,2.7-6.1,8.5-3.5,13.1l3.6,6.1c20.3,35.1,53,59,79.4,88.6c1.2,1.3,5.7,0.9,8-0.2c4.7-2.2,6-6.8,5.8-11.4
			c-0.7-15.3-7.2-28.2-16.2-38.9c-9.3-11.1-18.4-22.3-27.9-33.2c12.7,1.2,25.4,2.3,38,2.1c27.3-0.4,54.6-2.4,82-3.7
			C241.536,273.002,291.636,266.402,341.136,268.802z"/>
	</g>
</g>
<g>
</g>
<g>
</g>
<g>
</g>
<g>
</g>
<g>
</g>
<g>
</g>
<g>
</g>
<g>
</g>
<g>
</g>
<g>
</g>
<g>
</g>
<g>
</g>
<g>
</g>
<g>
</g>
<g>
</g>
</svg>
