<?xml version="1.0" encoding="iso-8859-1"?>
<!-- Generator: Adobe Illustrator 19.0.0, SVG Export Plug-In . SVG Version: 6.00 Build 0)  -->
<svg version="1.1" id="Capa_1" xmlns="http://www.w3.org/2000/svg" xmlns:xlink="http://www.w3.org/1999/xlink" x="0px" y="0px"
	 viewBox="0 0 489.725 489.725" style="enable-background:new 0 0 489.725 489.725;" xml:space="preserve">
<g>
	<g>
		<path d="M59.461,367.601c0.8-1.8,1.8-3.5,2.7-5.3c0.8-1.8,2-3.4,3-5.1l1.6-2.5l1.6-2.1l1.6-2.1c0.3-0.4,0.4-0.7,0.8-1.1l1.2-1.3
			l4.3-4.7l10.3-10.2c43.7-44.2,86.2-89.6,129.2-134.5c10.9-8.8,21.5-17.9,32.1-27.1c1.3-1.1,2.7-2.4,3.9-3.3l2.9-2.2l3-1.9l3.2-1.5
			c4.3-1.8,8.9-2.8,13.5-2.9c4.6-0.1,9.2,0.7,13.4,2.2c2.1,0.8,4.1,1.7,6,2.9c0.9,0.6,2.1,1.2,2.5,1.7c0.7,0.7,0.9,0.5,2.5,2
			l1.9,1.8l0.2,0.2l0.5,0.6c0.7,0.9,1.6,1.6,2.1,2.6c1.3,1.8,2.5,3.7,3.4,5.6c1.9,4,3,8.3,3.3,12.7c0.5,8.9-2.5,17.7-8.5,24.4
			l-0.9,1l-0.4,0.5l-0.1,0.1l-1.5,1.5l-3.7,3.8l-7.5,7.5l-14.9,15.1c-19.9,20.1-39.9,40-60.3,59.5c-3.6,3.5-6.7,11.5-6.7,15
			c0,6.9,7.4,5.3,16.4,0.8c29.5-15,59.8-38.8,88.1-65.4l12.8-12l1.6-1.5l0.4-0.4l0.9-0.9l0.8-0.8c1.1-1.1,1.9-1.9,3.1-3.3
			c1.3-1.6,2.6-3.2,3.8-4.9c1.2-1.6,2.1-3.2,3.1-4.8c7.7-12.9,11-28.5,9-43.6c-1-7.6-3.2-15-6.5-21.9c-1.8-3.4-3.7-6.8-6-9.9
			c-1.1-1.6-2.3-3.1-3.6-4.5l-1.9-2.2l-0.5-0.5l-0.1-0.1l-0.7-0.7l-0.2-0.2l-0.8-0.8c-1.1-1.1-1.9-1.9-3.3-3.1
			c-1.7-1.4-3.4-2.7-5.2-4c-3.4-2.3-6.6-4.3-10.2-5.9c-7.1-3.4-14.7-5.6-22.5-6.5c-15.6-1.7-31.9,1.8-45.4,10.3
			c-6.6,4-13.2,10.4-16.6,13.9l-12.5,12.4c-16.6,16.6-33,33.5-49,50.7c-8.5,8-17,15.9-25.5,23.9c-26.7,25.5-53.2,51.2-79.1,77.4
			l-4.9,4.9l-0.6,0.6l-1.3,1.4l-1.1,1.3l-2.3,2.6l-2.3,2.6l-2.8,3.7c-1.7,2.5-3.8,5.1-5.2,7.5c-6.1,9.5-10.2,20.2-12.8,31.1
			c-2.7,10.9-3.4,22.2-2.3,33.2c1.1,11,3.7,21.9,8.2,31.9c5.1,11.4,12.7,20.3,19.3,24.8c6.9,4.4,12.3,4.9,14.9,1.1
			c2.5-3.5,2.2-8.8,0.6-15.1c-1.6-6.3-4.1-13.9-6.9-22.5c-5.1-15.6-4.3-32.7,0.8-47.7L59.461,367.601z"/>
		<path d="M74.561,459.901c1.6,2.2,3.4,4.8,6,7.4c8.4,8.5,19.9,15.4,33.3,19.2c13.4,3.8,28.7,4.5,43.7,0.7
			c14.9-3.6,30-11.5,41.7-22.6c10.8-9.7,21.6-19.8,32.3-30.1c51.4-49.4,103.1-98.5,154.3-148.2l38.3-37.4l2.4-2.3l1.2-1.2l1.2-1.3
			l0.6-0.6l4.5-4.9c2.9-2.8,6.4-7.6,9.6-12c6.4-8.8,11.1-17.6,15.3-27.2c16.2-38.1,14-83.2-5.4-119.5c-2.2-4.6-4.9-8.9-7.3-13.4
			c-2.8-4.2-5.8-8.4-8.8-12.5l-5-5.8l-2.5-2.9l-1.3-1.4l-0.6-0.7l-1.3-1.2l-4.9-4.6l-2.4-2.3c-0.8-0.7-1.6-1.5-2.8-2.4
			c-3.4-2.7-6.9-5.3-10.3-7.9c-3.5-2.3-6.9-4.3-10.4-6.4c-3.4-2.2-7.3-3.7-10.9-5.5c-3.6-1.9-7.5-3.2-11.3-4.6
			c-15.3-5.4-31.6-8.2-47.9-8.3c-32.7-0.1-65.2,11.9-90.4,32.7l-9,8.2c-2.9,2.7-5,5-7.6,7.6l-14.8,15l-29.2,30.5
			c-19.5,20.2-38.8,40.5-57.8,61c-21.7,23.3-37.1,45.3-29,50c7.4,4.3,27.6-7.3,51.4-29.7c21.3-20.2,42.7-40.4,64.2-60.7l31.8-30.7
			l15.8-15.5l7.2-6.4c2.4-2.2,5.1-3.8,7.6-5.8c8.4-5.8,17.5-10.8,27.3-13.9c9.7-3.3,19.9-5.5,30.2-5.8c10.3-0.5,20.7,0.3,30.7,2.9
			l3.8,0.8l3.7,1.2c2.4,0.9,5,1.5,7.3,2.5c4.7,2.1,9.5,4.1,14,6.8c4.8,2.4,8.3,5.4,12.4,8.1l6.7,5.8l2.8,2.4l2.7,2.9
			c7.5,7.4,13.3,16.2,18.3,25.4c9.7,18.6,13.8,40.2,11.8,61.3c0.6-1,1.2-2.1,1.7-3.1c-0.6,1.2-1.1,2.3-1.7,3.1
			c-1,4.7-1.9,9.3-3.6,13.8c-1.2,4.6-3.3,8.8-5,13.2c-0.8,2.2-2.2,4.2-3.2,6.2c-1.2,2-2,4.2-3.4,6.1c-2.6,3.8-5.1,7.9-7.9,11
			c-1.5,1.7-2.4,3.2-4.2,5.1l-5.6,5.7l-1.4,1.4l-0.7,0.7l-0.2,0.2l-0.1,0.1c0.2-0.3-0.7,0.7,0.5-0.5l-0.4,0.3l-2.9,2.7l-5.9,5.5
			l-23.3,22c-31,29.6-61.6,59.7-92.1,90.1c-30.4,30.5-60.8,61-91.2,91.6l-11.4,11.4l-4.7,4.2c-1.6,1.4-3.4,2.5-5,3.8
			c-6.9,4.7-14.7,8.1-22.8,10.1c-16.3,3.9-34,1.5-48.4-6.6c-2.5-1.6-6.3-2.7-9.2-3.6c-0.8-0.2-1.6-0.4-2.4-0.6
			c-0.8-0.1-1.9-0.8-2.7-1c-1.8-0.7-3.3-1.2-4.4-1.3c-4.4-0.7-5.5,1.3-4.4,5.1C72.061,455.101,73.061,457.501,74.561,459.901z"/>
	</g>
</g>
<g>
</g>
<g>
</g>
<g>
</g>
<g>
</g>
<g>
</g>
<g>
</g>
<g>
</g>
<g>
</g>
<g>
</g>
<g>
</g>
<g>
</g>
<g>
</g>
<g>
</g>
<g>
</g>
<g>
</g>
</svg>
