<svg xmlns="http://www.w3.org/2000/svg" version="1.1" xmlns:xlink="http://www.w3.org/1999/xlink" xmlns:svgjs="http://svgjs.com/svgjs" width="2560" height="1600" preserveAspectRatio="none" viewBox="0 0 2560 1600"><g mask="url(&quot;#SvgjsMask7782&quot;)" fill="none"><rect width="2560" height="1600" x="0" y="0" fill="url(#SvgjsLinearGradient7783)"></rect><use xlink:href="#SvgjsSymbol7790" x="0" y="0"></use><use xlink:href="#SvgjsSymbol7790" x="0" y="720"></use><use xlink:href="#SvgjsSymbol7790" x="0" y="1440"></use><use xlink:href="#SvgjsSymbol7790" x="720" y="0"></use><use xlink:href="#SvgjsSymbol7790" x="720" y="720"></use><use xlink:href="#SvgjsSymbol7790" x="720" y="1440"></use><use xlink:href="#SvgjsSymbol7790" x="1440" y="0"></use><use xlink:href="#SvgjsSymbol7790" x="1440" y="720"></use><use xlink:href="#SvgjsSymbol7790" x="1440" y="1440"></use><use xlink:href="#SvgjsSymbol7790" x="2160" y="0"></use><use xlink:href="#SvgjsSymbol7790" x="2160" y="720"></use><use xlink:href="#SvgjsSymbol7790" x="2160" y="1440"></use></g><defs><mask id="SvgjsMask7782"><rect width="2560" height="1600" fill="#ffffff"></rect></mask><linearGradient x1="50%" y1="100%" x2="50%" y2="0%" gradientUnits="userSpaceOnUse" id="SvgjsLinearGradient7783"><stop stop-color="rgba(82, 128, 254, 1)" offset="0"></stop><stop stop-color="rgba(76, 160, 194, 1)" offset="0.3"></stop><stop stop-color="rgba(76, 160, 194, 0.73)" offset="0.74"></stop><stop stop-color="rgba(255, 255, 255, 1)" offset="1"></stop></linearGradient><path d="M-1 0 a1 1 0 1 0 2 0 a1 1 0 1 0 -2 0z" id="SvgjsPath7786"></path><path d="M-3 0 a3 3 0 1 0 6 0 a3 3 0 1 0 -6 0z" id="SvgjsPath7788"></path><path d="M-5 0 a5 5 0 1 0 10 0 a5 5 0 1 0 -10 0z" id="SvgjsPath7785"></path><path d="M2 -2 L-2 2z" id="SvgjsPath7784"></path><path d="M6 -6 L-6 6z" id="SvgjsPath7787"></path><path d="M30 -30 L-30 30z" id="SvgjsPath7789"></path></defs><symbol id="SvgjsSymbol7790"><use xlink:href="#SvgjsPath7784" x="30" y="30" stroke="rgba(138, 208, 88, 1)"></use><use xlink:href="#SvgjsPath7785" x="30" y="90" stroke="rgba(138, 208, 88, 1)"></use><use xlink:href="#SvgjsPath7785" x="30" y="150" stroke="rgba(138, 208, 88, 1)"></use><use xlink:href="#SvgjsPath7786" x="30" y="210" stroke="rgba(138, 208, 88, 1)"></use><use xlink:href="#SvgjsPath7787" x="30" y="270" stroke="rgba(138, 208, 88, 1)"></use><use xlink:href="#SvgjsPath7787" x="30" y="330" stroke="rgba(138, 208, 88, 1)"></use><use xlink:href="#SvgjsPath7787" x="30" y="390" stroke="rgba(138, 208, 88, 1)"></use><use xlink:href="#SvgjsPath7785" x="30" y="450" stroke="rgba(138, 208, 88, 1)"></use><use xlink:href="#SvgjsPath7786" x="30" y="510" stroke="rgba(138, 208, 88, 1)"></use><use xlink:href="#SvgjsPath7785" x="30" y="570" stroke="rgba(138, 208, 88, 1)"></use><use xlink:href="#SvgjsPath7784" x="30" y="630" stroke="rgba(138, 208, 88, 1)"></use><use xlink:href="#SvgjsPath7788" x="30" y="690" stroke="rgba(138, 208, 88, 1)"></use><use xlink:href="#SvgjsPath7787" x="90" y="30" stroke="rgba(138, 208, 88, 1)"></use><use xlink:href="#SvgjsPath7785" x="90" y="90" stroke="rgba(138, 208, 88, 1)"></use><use xlink:href="#SvgjsPath7787" x="90" y="150" stroke="rgba(138, 208, 88, 1)"></use><use xlink:href="#SvgjsPath7784" x="90" y="210" stroke="rgba(138, 208, 88, 1)"></use><use xlink:href="#SvgjsPath7787" x="90" y="270" stroke="rgba(138, 208, 88, 1)"></use><use xlink:href="#SvgjsPath7785" x="90" y="330" stroke="rgba(138, 208, 88, 1)"></use><use xlink:href="#SvgjsPath7786" x="90" y="390" stroke="rgba(138, 208, 88, 1)"></use><use xlink:href="#SvgjsPath7788" x="90" y="450" stroke="rgba(138, 208, 88, 1)"></use><use xlink:href="#SvgjsPath7784" x="90" y="510" stroke="rgba(138, 208, 88, 1)"></use><use xlink:href="#SvgjsPath7787" x="90" y="570" stroke="rgba(138, 208, 88, 1)"></use><use xlink:href="#SvgjsPath7789" x="90" y="630" stroke="rgba(138, 208, 88, 1)" stroke-width="3"></use><use xlink:href="#SvgjsPath7785" x="90" y="690" stroke="rgba(138, 208, 88, 1)"></use><use xlink:href="#SvgjsPath7788" x="150" y="30" stroke="rgba(138, 208, 88, 1)"></use><use xlink:href="#SvgjsPath7787" x="150" y="90" stroke="rgba(138, 208, 88, 1)"></use><use xlink:href="#SvgjsPath7785" x="150" y="150" stroke="rgba(138, 208, 88, 1)"></use><use xlink:href="#SvgjsPath7784" x="150" y="210" stroke="rgba(138, 208, 88, 1)"></use><use xlink:href="#SvgjsPath7787" x="150" y="270" stroke="rgba(138, 208, 88, 1)"></use><use xlink:href="#SvgjsPath7787" x="150" y="330" stroke="rgba(138, 208, 88, 1)"></use><use xlink:href="#SvgjsPath7785" x="150" y="390" stroke="rgba(138, 208, 88, 1)"></use><use xlink:href="#SvgjsPath7786" x="150" y="450" stroke="rgba(138, 208, 88, 1)"></use><use xlink:href="#SvgjsPath7784" x="150" y="510" stroke="rgba(138, 208, 88, 1)"></use><use xlink:href="#SvgjsPath7784" x="150" y="570" stroke="rgba(138, 208, 88, 1)"></use><use xlink:href="#SvgjsPath7787" x="150" y="630" stroke="rgba(138, 208, 88, 1)"></use><use xlink:href="#SvgjsPath7784" x="150" y="690" stroke="rgba(138, 208, 88, 1)"></use><use xlink:href="#SvgjsPath7785" x="210" y="30" stroke="rgba(138, 208, 88, 1)"></use><use xlink:href="#SvgjsPath7787" x="210" y="90" stroke="rgba(138, 208, 88, 1)"></use><use xlink:href="#SvgjsPath7785" x="210" y="150" stroke="rgba(138, 208, 88, 1)"></use><use xlink:href="#SvgjsPath7785" x="210" y="210" stroke="rgba(138, 208, 88, 1)"></use><use xlink:href="#SvgjsPath7784" x="210" y="270" stroke="rgba(138, 208, 88, 1)"></use><use xlink:href="#SvgjsPath7784" x="210" y="330" stroke="rgba(138, 208, 88, 1)"></use><use xlink:href="#SvgjsPath7787" x="210" y="390" stroke="rgba(138, 208, 88, 1)"></use><use xlink:href="#SvgjsPath7785" x="210" y="450" stroke="rgba(138, 208, 88, 1)"></use><use xlink:href="#SvgjsPath7787" x="210" y="510" stroke="rgba(138, 208, 88, 1)"></use><use xlink:href="#SvgjsPath7787" x="210" y="570" stroke="rgba(138, 208, 88, 1)"></use><use xlink:href="#SvgjsPath7785" x="210" y="630" stroke="rgba(138, 208, 88, 1)"></use><use xlink:href="#SvgjsPath7789" x="210" y="690" stroke="rgba(138, 208, 88, 1)" stroke-width="3"></use><use xlink:href="#SvgjsPath7785" x="270" y="30" stroke="rgba(138, 208, 88, 1)"></use><use xlink:href="#SvgjsPath7784" x="270" y="90" stroke="rgba(138, 208, 88, 1)"></use><use xlink:href="#SvgjsPath7785" x="270" y="150" stroke="rgba(138, 208, 88, 1)"></use><use xlink:href="#SvgjsPath7784" x="270" y="210" stroke="rgba(138, 208, 88, 1)"></use><use xlink:href="#SvgjsPath7785" x="270" y="270" stroke="rgba(138, 208, 88, 1)"></use><use xlink:href="#SvgjsPath7787" x="270" y="330" stroke="rgba(138, 208, 88, 1)"></use><use xlink:href="#SvgjsPath7787" x="270" y="390" stroke="rgba(138, 208, 88, 1)"></use><use xlink:href="#SvgjsPath7787" x="270" y="450" stroke="rgba(138, 208, 88, 1)"></use><use xlink:href="#SvgjsPath7785" x="270" y="510" stroke="rgba(138, 208, 88, 1)"></use><use xlink:href="#SvgjsPath7786" x="270" y="570" stroke="rgba(138, 208, 88, 1)"></use><use xlink:href="#SvgjsPath7786" x="270" y="630" stroke="rgba(138, 208, 88, 1)"></use><use xlink:href="#SvgjsPath7785" x="270" y="690" stroke="rgba(138, 208, 88, 1)"></use><use xlink:href="#SvgjsPath7787" x="330" y="30" stroke="rgba(138, 208, 88, 1)"></use><use xlink:href="#SvgjsPath7785" x="330" y="90" stroke="rgba(138, 208, 88, 1)"></use><use xlink:href="#SvgjsPath7788" x="330" y="150" stroke="rgba(138, 208, 88, 1)"></use><use xlink:href="#SvgjsPath7787" x="330" y="210" stroke="rgba(138, 208, 88, 1)"></use><use xlink:href="#SvgjsPath7785" x="330" y="270" stroke="rgba(138, 208, 88, 1)"></use><use xlink:href="#SvgjsPath7785" x="330" y="330" stroke="rgba(138, 208, 88, 1)"></use><use xlink:href="#SvgjsPath7786" x="330" y="390" stroke="rgba(138, 208, 88, 1)"></use><use xlink:href="#SvgjsPath7785" x="330" y="450" stroke="rgba(138, 208, 88, 1)"></use><use xlink:href="#SvgjsPath7784" x="330" y="510" stroke="rgba(138, 208, 88, 1)"></use><use xlink:href="#SvgjsPath7789" x="330" y="570" stroke="rgba(138, 208, 88, 1)" stroke-width="3"></use><use xlink:href="#SvgjsPath7788" x="330" y="630" stroke="rgba(138, 208, 88, 1)"></use><use xlink:href="#SvgjsPath7787" x="330" y="690" stroke="rgba(138, 208, 88, 1)"></use><use xlink:href="#SvgjsPath7786" x="390" y="30" stroke="rgba(138, 208, 88, 1)"></use><use xlink:href="#SvgjsPath7785" x="390" y="90" stroke="rgba(138, 208, 88, 1)"></use><use xlink:href="#SvgjsPath7787" x="390" y="150" stroke="rgba(138, 208, 88, 1)"></use><use xlink:href="#SvgjsPath7785" x="390" y="210" stroke="rgba(138, 208, 88, 1)"></use><use xlink:href="#SvgjsPath7785" x="390" y="270" stroke="rgba(138, 208, 88, 1)"></use><use xlink:href="#SvgjsPath7785" x="390" y="330" stroke="rgba(138, 208, 88, 1)"></use><use xlink:href="#SvgjsPath7785" x="390" y="390" stroke="rgba(138, 208, 88, 1)"></use><use xlink:href="#SvgjsPath7785" x="390" y="450" stroke="rgba(138, 208, 88, 1)"></use><use xlink:href="#SvgjsPath7786" x="390" y="510" stroke="rgba(138, 208, 88, 1)"></use><use xlink:href="#SvgjsPath7789" x="390" y="570" stroke="rgba(138, 208, 88, 1)" stroke-width="3"></use><use xlink:href="#SvgjsPath7785" x="390" y="630" stroke="rgba(138, 208, 88, 1)"></use><use xlink:href="#SvgjsPath7787" x="390" y="690" stroke="rgba(138, 208, 88, 1)"></use><use xlink:href="#SvgjsPath7786" x="450" y="30" stroke="rgba(138, 208, 88, 1)"></use><use xlink:href="#SvgjsPath7785" x="450" y="90" stroke="rgba(138, 208, 88, 1)"></use><use xlink:href="#SvgjsPath7788" x="450" y="150" stroke="rgba(138, 208, 88, 1)"></use><use xlink:href="#SvgjsPath7785" x="450" y="210" stroke="rgba(138, 208, 88, 1)"></use><use xlink:href="#SvgjsPath7788" x="450" y="270" stroke="rgba(138, 208, 88, 1)"></use><use xlink:href="#SvgjsPath7786" x="450" y="330" stroke="rgba(138, 208, 88, 1)"></use><use xlink:href="#SvgjsPath7789" x="450" y="390" stroke="rgba(138, 208, 88, 1)" stroke-width="3"></use><use xlink:href="#SvgjsPath7784" x="450" y="450" stroke="rgba(138, 208, 88, 1)"></use><use xlink:href="#SvgjsPath7784" x="450" y="510" stroke="rgba(138, 208, 88, 1)"></use><use xlink:href="#SvgjsPath7788" x="450" y="570" stroke="rgba(138, 208, 88, 1)"></use><use xlink:href="#SvgjsPath7784" x="450" y="630" stroke="rgba(138, 208, 88, 1)"></use><use xlink:href="#SvgjsPath7787" x="450" y="690" stroke="rgba(138, 208, 88, 1)"></use><use xlink:href="#SvgjsPath7785" x="510" y="30" stroke="rgba(138, 208, 88, 1)"></use><use xlink:href="#SvgjsPath7787" x="510" y="90" stroke="rgba(138, 208, 88, 1)"></use><use xlink:href="#SvgjsPath7788" x="510" y="150" stroke="rgba(138, 208, 88, 1)"></use><use xlink:href="#SvgjsPath7785" x="510" y="210" stroke="rgba(138, 208, 88, 1)"></use><use xlink:href="#SvgjsPath7784" x="510" y="270" stroke="rgba(138, 208, 88, 1)"></use><use xlink:href="#SvgjsPath7787" x="510" y="330" stroke="rgba(138, 208, 88, 1)"></use><use xlink:href="#SvgjsPath7788" x="510" y="390" stroke="rgba(138, 208, 88, 1)"></use><use xlink:href="#SvgjsPath7788" x="510" y="450" stroke="rgba(138, 208, 88, 1)"></use><use xlink:href="#SvgjsPath7788" x="510" y="510" stroke="rgba(138, 208, 88, 1)"></use><use xlink:href="#SvgjsPath7788" x="510" y="570" stroke="rgba(138, 208, 88, 1)"></use><use xlink:href="#SvgjsPath7787" x="510" y="630" stroke="rgba(138, 208, 88, 1)"></use><use xlink:href="#SvgjsPath7786" x="510" y="690" stroke="rgba(138, 208, 88, 1)"></use><use xlink:href="#SvgjsPath7787" x="570" y="30" stroke="rgba(138, 208, 88, 1)"></use><use xlink:href="#SvgjsPath7787" x="570" y="90" stroke="rgba(138, 208, 88, 1)"></use><use xlink:href="#SvgjsPath7788" x="570" y="150" stroke="rgba(138, 208, 88, 1)"></use><use xlink:href="#SvgjsPath7785" x="570" y="210" stroke="rgba(138, 208, 88, 1)"></use><use xlink:href="#SvgjsPath7784" x="570" y="270" stroke="rgba(138, 208, 88, 1)"></use><use xlink:href="#SvgjsPath7785" x="570" y="330" stroke="rgba(138, 208, 88, 1)"></use><use xlink:href="#SvgjsPath7788" x="570" y="390" stroke="rgba(138, 208, 88, 1)"></use><use xlink:href="#SvgjsPath7786" x="570" y="450" stroke="rgba(138, 208, 88, 1)"></use><use xlink:href="#SvgjsPath7785" x="570" y="510" stroke="rgba(138, 208, 88, 1)"></use><use xlink:href="#SvgjsPath7787" x="570" y="570" stroke="rgba(138, 208, 88, 1)"></use><use xlink:href="#SvgjsPath7785" x="570" y="630" stroke="rgba(138, 208, 88, 1)"></use><use xlink:href="#SvgjsPath7787" x="570" y="690" stroke="rgba(138, 208, 88, 1)"></use><use xlink:href="#SvgjsPath7787" x="630" y="30" stroke="rgba(138, 208, 88, 1)"></use><use xlink:href="#SvgjsPath7784" x="630" y="90" stroke="rgba(138, 208, 88, 1)"></use><use xlink:href="#SvgjsPath7785" x="630" y="150" stroke="rgba(138, 208, 88, 1)"></use><use xlink:href="#SvgjsPath7785" x="630" y="210" stroke="rgba(138, 208, 88, 1)"></use><use xlink:href="#SvgjsPath7784" x="630" y="270" stroke="rgba(138, 208, 88, 1)"></use><use xlink:href="#SvgjsPath7788" x="630" y="330" stroke="rgba(138, 208, 88, 1)"></use><use xlink:href="#SvgjsPath7785" x="630" y="390" stroke="rgba(138, 208, 88, 1)"></use><use xlink:href="#SvgjsPath7786" x="630" y="450" stroke="rgba(138, 208, 88, 1)"></use><use xlink:href="#SvgjsPath7785" x="630" y="510" stroke="rgba(138, 208, 88, 1)"></use><use xlink:href="#SvgjsPath7787" x="630" y="570" stroke="rgba(138, 208, 88, 1)"></use><use xlink:href="#SvgjsPath7787" x="630" y="630" stroke="rgba(138, 208, 88, 1)"></use><use xlink:href="#SvgjsPath7784" x="630" y="690" stroke="rgba(138, 208, 88, 1)"></use><use xlink:href="#SvgjsPath7787" x="690" y="30" stroke="rgba(138, 208, 88, 1)"></use><use xlink:href="#SvgjsPath7784" x="690" y="90" stroke="rgba(138, 208, 88, 1)"></use><use xlink:href="#SvgjsPath7787" x="690" y="150" stroke="rgba(138, 208, 88, 1)"></use><use xlink:href="#SvgjsPath7788" x="690" y="210" stroke="rgba(138, 208, 88, 1)"></use><use xlink:href="#SvgjsPath7784" x="690" y="270" stroke="rgba(138, 208, 88, 1)"></use><use xlink:href="#SvgjsPath7788" x="690" y="330" stroke="rgba(138, 208, 88, 1)"></use><use xlink:href="#SvgjsPath7787" x="690" y="390" stroke="rgba(138, 208, 88, 1)"></use><use xlink:href="#SvgjsPath7787" x="690" y="450" stroke="rgba(138, 208, 88, 1)"></use><use xlink:href="#SvgjsPath7787" x="690" y="510" stroke="rgba(138, 208, 88, 1)"></use><use xlink:href="#SvgjsPath7787" x="690" y="570" stroke="rgba(138, 208, 88, 1)"></use><use xlink:href="#SvgjsPath7788" x="690" y="630" stroke="rgba(138, 208, 88, 1)"></use><use xlink:href="#SvgjsPath7787" x="690" y="690" stroke="rgba(138, 208, 88, 1)"></use></symbol></svg>