<svg xmlns="http://www.w3.org/2000/svg" version="1.1" xmlns:xlink="http://www.w3.org/1999/xlink" xmlns:svgjs="http://svgjs.com/svgjs" width="2560" height="1600" preserveAspectRatio="none" viewBox="0 0 2560 1600"><g mask="url(&quot;#SvgjsMask2659&quot;)" fill="none"><rect width="2560" height="1600" x="0" y="0" fill="url(#SvgjsLinearGradient2660)"></rect><path d="M1742.71 1832.64C1932.22 1727.81 1738.23 1182.17 2185.68 1088.18 2633.13 994.19 2816.44 594.15 3071.62 576.18" stroke="rgba(6, 171, 174, 0.58)" stroke-width="2"></path><path d="M1357.2 1665.15C1513.35 1631.48 1374.97 1294.19 1818.54 1223.1 2262.11 1152.01 2453.66 557.75 2741.22 519.1" stroke="rgba(6, 171, 174, 0.58)" stroke-width="2"></path><path d="M677.58 1605.61C1038.71 1514.69 1179.31 535.79 1710.53 532.31 2241.75 528.83 2448.42 1089.28 2743.48 1108.31" stroke="rgba(6, 171, 174, 0.58)" stroke-width="2"></path><path d="M1040.78 1628.25C1391.33 1465.42 1429.97 361.19 1901.23 343.74 2372.49 326.29 2512.08 836.86 2761.68 855.74" stroke="rgba(6, 171, 174, 0.58)" stroke-width="2"></path><path d="M1182.7 1792.22C1359.8 1754.74 1208.16 1368.95 1707.91 1293.76 2207.67 1218.57 2435.44 565.25 2758.34 525.76" stroke="rgba(6, 171, 174, 0.58)" stroke-width="2"></path></g><defs><mask id="SvgjsMask2659"><rect width="2560" height="1600" fill="#ffffff"></rect></mask><linearGradient x1="9.38%" y1="115%" x2="90.63%" y2="-15%" gradientUnits="userSpaceOnUse" id="SvgjsLinearGradient2660"><stop stop-color="rgba(14, 42, 71, 1)" offset="0"></stop><stop stop-color="rgba(173, 225, 250, 1)" offset="1"></stop></linearGradient></defs></svg>